<?xml version="1.0" encoding="UTF-8"?>
<svg xmlns="http://www.w3.org/2000/svg" xmlns:xlink="http://www.w3.org/1999/xlink" width="600px" height="600px" viewBox="0 0 600 600" version="1.1">
<g id="surface1">
<path style=" stroke:none;fill-rule:nonzero;fill:rgb(100%,100%,100%);fill-opacity:1;" d="M 566.285156 267.515625 C 568.125 267.515625 569.875 267.515625 571.714844 267.515625 C 576.59375 267.515625 576.960938 268.160156 575.210938 272.484375 C 572.269531 279.660156 569.414062 286.746094 566.46875 293.925781 C 559.84375 309.9375 553.3125 326.042969 546.683594 342.054688 C 545.121094 345.734375 543.464844 349.324219 541.164062 352.636719 C 536.46875 359.355469 530.304688 362.945312 521.839844 362.851562 C 517.054688 362.761719 512.453125 362.023438 508.035156 360.277344 C 505.183594 359.171875 503.984375 358.433594 505.734375 355.121094 C 506.46875 353.742188 506.839844 352.363281 507.480469 350.980469 C 509.140625 347.300781 509.324219 347.300781 513.097656 348.589844 C 514.753906 349.234375 516.5 349.785156 518.25 350.0625 C 523.769531 350.890625 527.910156 348.957031 530.855469 344.078125 C 532.789062 340.949219 533.339844 338.191406 531.59375 334.507812 C 522.207031 314.539062 513.097656 294.476562 503.800781 274.507812 C 503.25 273.21875 502.605469 272.023438 502.144531 270.734375 C 501.410156 268.800781 501.960938 267.789062 503.984375 267.605469 C 505.734375 267.421875 507.574219 267.605469 509.414062 267.605469 C 517.605469 267.605469 515.855469 266.777344 518.984375 273.863281 C 525.242188 288.035156 531.5 302.300781 537.757812 316.472656 L 539.046875 319.140625 C 539.046875 319.140625 539.414062 319.96875 539.96875 319.96875 C 540.519531 319.96875 541.253906 320.0625 541.808594 319.046875 C 541.992188 318.679688 542.269531 318.035156 542.542969 317.484375 C 542.636719 317.207031 542.636719 317.023438 542.726562 316.839844 C 548.710938 301.746094 554.507812 286.5625 560.398438 271.472656 C 562.054688 267.515625 562.054688 267.605469 566.285156 267.515625 Z M 464.96875 295.582031 C 469.9375 297.332031 475.089844 298.433594 479.96875 300.460938 C 483.832031 302.117188 487.421875 304.046875 490.367188 307.085938 C 497.542969 314.445312 496.253906 328.066406 488.617188 335.0625 C 483.832031 339.386719 478.125 341.59375 471.683594 342.054688 C 461.285156 342.699219 451.625 340.304688 442.695312 334.875 C 436.4375 331.105469 436.347656 330.734375 440.488281 325.03125 C 443.339844 321.164062 442.972656 319.507812 448.863281 323.464844 C 455.582031 327.976562 463.035156 330.183594 471.316406 329.445312 C 474.351562 329.171875 477.023438 328.25 479.140625 326.042969 C 482.636719 322.359375 482.175781 317.574219 478.035156 314.632812 C 475.179688 312.605469 471.777344 311.6875 468.464844 310.675781 C 465.425781 309.660156 462.390625 308.925781 459.261719 308.003906 C 456.039062 306.992188 453.09375 305.613281 450.152344 304.046875 C 437.820312 297.238281 438.464844 282.238281 445.917969 274.324219 C 450.519531 269.445312 456.222656 266.960938 462.851562 266.59375 C 464.230469 266.503906 465.609375 266.59375 466.992188 266.59375 C 475.550781 266.316406 483.371094 268.988281 490.734375 273.035156 C 493.769531 274.691406 493.953125 275.613281 492.207031 278.648438 C 491.285156 280.304688 490.183594 281.960938 489.167969 283.617188 C 488.25 285.183594 486.867188 285.460938 485.210938 284.722656 C 484.292969 284.355469 483.464844 283.804688 482.636719 283.34375 C 477.851562 280.675781 472.695312 279.109375 467.265625 278.648438 C 464.136719 278.375 460.917969 279.015625 458.066406 280.765625 C 453.28125 283.710938 453.1875 289.046875 457.695312 292.269531 C 459.996094 293.832031 462.480469 294.753906 464.96875 295.582031 Z M 399.628906 297.515625 C 397.695312 299.539062 397.695312 299.722656 399.445312 302.023438 C 408.003906 313.25 416.5625 324.386719 425.121094 335.613281 C 426.039062 336.902344 427.878906 338.003906 426.960938 339.847656 C 426.132812 341.6875 424.109375 341.226562 422.542969 341.226562 C 420.335938 341.226562 418.125 341.132812 415.917969 341.226562 C 413.433594 341.410156 411.777344 340.488281 410.304688 338.558594 C 404.414062 330.734375 398.339844 323.003906 392.359375 315.273438 C 387.480469 309.019531 388.21875 309.386719 384.445312 312.882812 C 381.867188 315.367188 378.738281 318.679688 377.542969 320.335938 C 377.082031 321.257812 376.621094 322.085938 376.347656 323.097656 C 375.703125 325.675781 375.886719 328.433594 375.886719 328.433594 L 375.886719 331.933594 C 375.980469 333.402344 375.980469 334.875 375.886719 336.347656 C 375.886719 336.808594 375.886719 337.269531 375.792969 337.730469 C 375.703125 340.398438 374.875 341.132812 372.296875 341.320312 C 369.8125 341.410156 367.328125 341.410156 364.84375 341.320312 C 362.082031 341.226562 361.621094 340.675781 361.53125 337.730469 C 361.4375 330.734375 361.53125 323.648438 361.53125 316.65625 C 361.53125 307.730469 361.53125 298.710938 361.53125 289.785156 C 361.53125 274.785156 361.53125 259.785156 361.53125 244.785156 C 361.53125 243.679688 361.53125 242.574219 361.53125 241.472656 C 361.53125 239.722656 362.449219 238.894531 364.015625 238.800781 C 366.960938 238.710938 369.8125 238.617188 372.757812 238.800781 C 374.78125 238.894531 375.609375 239.816406 375.792969 241.929688 C 375.886719 242.851562 375.792969 243.863281 375.792969 244.785156 C 375.792969 262.546875 375.792969 280.304688 375.792969 298.066406 L 375.792969 301.472656 C 375.980469 301.746094 376.253906 301.933594 376.621094 302.117188 C 377.910156 302.574219 378.832031 300.734375 379.75 299.722656 C 389.324219 289.785156 398.984375 279.84375 408.464844 269.816406 C 410.027344 268.160156 411.59375 267.332031 413.894531 267.515625 C 416.929688 267.699219 419.964844 267.605469 423.09375 267.515625 C 424.382812 267.515625 425.671875 267.605469 426.222656 268.988281 C 426.777344 270.367188 425.582031 271.011719 424.84375 271.746094 C 419.507812 277.175781 414.167969 282.605469 408.832031 287.945312 C 405.792969 291.164062 402.757812 294.292969 399.628906 297.515625 Z M 270.703125 304.324219 C 270.703125 283.894531 285.976562 266.132812 309.261719 266.132812 C 333.554688 266.132812 348.371094 285.734375 347.542969 304.507812 C 348.09375 322.546875 334.476562 342.605469 309.078125 342.699219 C 285.703125 342.699219 270.703125 325.03125 270.703125 304.324219 Z M 333.1875 304.691406 C 333.832031 292.546875 323.707031 277.820312 307.328125 279.109375 C 299.046875 279.753906 292.878906 283.617188 288.738281 290.519531 C 285.058594 296.777344 284.046875 303.679688 285.886719 310.859375 C 290.027344 327.148438 307.050781 333.957031 320.394531 326.777344 C 329.230469 322.085938 332.820312 314.261719 333.1875 304.691406 Z M 181.347656 304.324219 C 181.347656 285.183594 195.792969 266.042969 219.902344 266.042969 C 243.832031 266.042969 258.648438 284.722656 258.277344 304.324219 C 258.371094 324.386719 243.460938 342.789062 219.351562 342.605469 C 195.519531 342.515625 181.347656 323.742188 181.347656 304.324219 Z M 237.574219 321.808594 C 245.210938 313.066406 246.132812 300 239.964844 290.246094 C 235.363281 282.972656 228.738281 279.015625 218.707031 279.109375 C 213.832031 278.832031 208.585938 280.949219 203.984375 285 C 193.953125 293.925781 192.941406 310.765625 202.050781 321.347656 C 212.175781 333.035156 228.921875 331.746094 237.574219 321.808594 Z M 115.179688 269.261719 C 120.792969 265.949219 127.050781 264.203125 133.402344 264.476562 C 146.835938 265.03125 157.511719 271.101562 164.597656 282.789062 C 168.738281 289.691406 170.210938 297.238281 170.117188 305.335938 C 170.027344 314.355469 167.449219 322.453125 161.558594 329.355469 C 154.199219 338.003906 144.71875 342.238281 133.308594 343.160156 C 116.46875 344.539062 102.847656 337.730469 89.964844 328.160156 C 83.613281 323.464844 77.265625 318.863281 70.546875 314.632812 C 67.601562 312.789062 64.472656 311.316406 61.070312 310.488281 C 53.523438 308.464844 46.160156 311.410156 42.113281 318.035156 C 41.742188 318.589844 41.375 319.230469 41.101562 319.875 C 40.269531 321.71875 38.890625 322.546875 36.773438 322.453125 C 33.738281 322.359375 30.699219 322.453125 27.570312 322.453125 C 23.984375 322.359375 23.0625 321.074219 24.441406 317.761719 C 29.226562 306.625 37.695312 299.539062 49.566406 296.871094 C 60.609375 294.386719 70.730469 296.59375 79.84375 303.21875 C 85.179688 307.175781 90.425781 311.226562 95.855469 315.089844 C 103.214844 320.246094 110.761719 325.304688 119.597656 327.699219 C 128.890625 330.273438 138.003906 329.90625 146.191406 324.019531 C 150.976562 320.519531 154.199219 316.011719 155.117188 310.121094 C 156.316406 302.300781 155.488281 294.753906 150.515625 288.128906 C 141.128906 275.613281 122.910156 276.257812 114.351562 289.417969 C 111.957031 293.1875 110.394531 297.238281 110.671875 301.839844 C 110.761719 303.773438 110.761719 305.703125 110.578125 307.636719 C 110.394531 309.847656 109.015625 310.765625 107.171875 309.753906 C 103.769531 308.003906 100.546875 305.796875 97.511719 303.402344 C 95.945312 302.207031 96.222656 300.460938 96.222656 298.804688 C 96.222656 289.324219 96.222656 279.753906 96.222656 270.273438 C 96.222656 260.796875 96.222656 251.226562 96.222656 241.746094 C 96.222656 237.421875 96.5 237.144531 101.007812 237.144531 C 102.386719 237.144531 103.769531 237.144531 105.148438 237.144531 C 109.84375 237.238281 110.578125 237.882812 110.578125 242.757812 C 110.578125 249.109375 110.578125 255.460938 110.578125 261.808594 C 110.578125 263.464844 110.578125 265.121094 110.578125 266.777344 C 110.855469 271.746094 110.855469 271.746094 115.179688 269.261719 Z M 115.179688 269.261719 "/>
</g>
</svg>
